# xmcd CD database file
#
# Track frame offsets:
#	182
#	20782
#	37272
#	49050
#	81665
#	98695
#	125442
#	147602
#	158047
#	178677
#	193005
#	208665
#	228497
#	245877
#	258677
#	286557
#
# Disc length: 4026 seconds
#
# Revision: 6
# Processed by: cddbd v1.5.2PL0 Copyright (c) Steve Scherf et al.
# Submitted via: CDex 2.15
#
DISCID=f60fb810
DTITLE=Paolo Conte - Concerti
DYEAR=1985
DGENRE=Jazz
TTITLE0=Come di
TTITLE1=La ricostuzione del mocambo
TTITLE2=Via con me
TTITLE3=Alle prese con la verde milonga
TTITLE4=Parigi
TTITLE5=Diavolo rosso
TTITLE6=Hemingway
TTITLE7=Bartali
TTITLE8=Un gelato al limon
TTITLE9=Una giornata al mare
TTITLE10=Il nostro amico Angiolino
TTITLE11=Onda su onda
TTITLE12=Sotto le stelle del jazz
TTITLE13=Azzurro
TTITLE14=Boogie
TTITLE15=Genova per noi
EXTD=YEAR: 1985
EXTT0=
EXTT1=
EXTT2=
EXTT3=
EXTT4=
EXTT5=
EXTT6=
EXTT7=
EXTT8=
EXTT9=
EXTT10=
EXTT11=
EXTT12=
EXTT13=
EXTT14=
EXTT15=
PLAYORDER=
